# xmcd
# 
# Track frame offsets:
#     150
#     40799
#     69186
#     110961
#     138237
#     173632
#     195640
# 
# Disc length: 2814
# 
# Revision: 4
# Processed by: cddbd v1.5.2PL0 Copyright (c) Steve Scherf et al.
# Submitted via: BonkEnc v1.0.8
# 
DISCID=5b0afc07
DTITLE=Canned Heat - '70 Concert - Live In Europe
DYEAR=1970
DGENRE=Boogie
TTITLE0=That's All Right Mama
TTITLE1=Bring It On Home
TTITLE2=Pulling Hair Blues
TTITLE3=Medley: Back Out On The Road and On The Road Again
TTITLE4=London Blues
TTITLE5=Let's Work Together
TTITLE6=Goodbye For Now
EXTD=Input by Bill (whall@netcomuk.co.uk)
EXTT0=
EXTT1=
EXTT2=
EXTT3=
EXTT4=
EXTT5=
EXTT6=
PLAYORDER=
